<svg xmlns="http://www.w3.org/2000/svg" viewBox="0 0 128 128" width="128" height="128" role="img" aria-label="Big Fatty fairy">
  <defs>
    <radialGradient id="glow" cx="50%" cy="38%" r="62%">
      <stop offset="0%" stop-color="#fffef0" stop-opacity="1"/>
      <stop offset="55%" stop-color="#fff3b0" stop-opacity="0.96"/>
      <stop offset="100%" stop-color="#ffd86d" stop-opacity="0"/>
    </radialGradient>
    <linearGradient id="body" x1="0%" y1="0%" x2="0%" y2="100%">
      <stop offset="0%" stop-color="#ffffff"/>
      <stop offset="100%" stop-color="#dff2ff"/>
    </linearGradient>
    <linearGradient id="wings" x1="0%" y1="0%" x2="100%" y2="100%">
      <stop offset="0%" stop-color="#b6f2ff" stop-opacity="0.9"/>
      <stop offset="100%" stop-color="#6cbcff" stop-opacity="0.55"/>
    </linearGradient>
  </defs>
  <rect width="128" height="128" fill="none"/>
  <circle cx="64" cy="64" r="52" fill="url(#glow)"/>
  <ellipse cx="41" cy="56" rx="23" ry="14" fill="url(#wings)" transform="rotate(-24 41 56)"/>
  <ellipse cx="87" cy="56" rx="23" ry="14" fill="url(#wings)" transform="rotate(24 87 56)"/>
  <ellipse cx="64" cy="72" rx="18" ry="24" fill="url(#body)" stroke="#8cc7ff" stroke-width="4"/>
  <circle cx="64" cy="48" r="16" fill="#fffaf4" stroke="#8cc7ff" stroke-width="4"/>
  <circle cx="59" cy="46" r="2.8" fill="#2f4f66"/>
  <circle cx="69" cy="46" r="2.8" fill="#2f4f66"/>
  <path d="M58 54 Q64 59 70 54" fill="none" stroke="#ff8e9a" stroke-width="3" stroke-linecap="round"/>
  <path d="M46 39 Q52 30 61 36" fill="none" stroke="#fff1a1" stroke-width="5" stroke-linecap="round"/>
  <circle cx="50" cy="33" r="3" fill="#fff3aa"/>
  <circle cx="77" cy="37" r="2.5" fill="#fff3aa"/>
  <circle cx="86" cy="31" r="2" fill="#fff3aa"/>
  <circle cx="41" cy="87" r="5" fill="#fff3aa" stroke="#ffcf6e" stroke-width="2"/>
  <circle cx="88" cy="86" r="5" fill="#fff3aa" stroke="#ffcf6e" stroke-width="2"/>
  <path d="M53 72 Q64 80 75 72" fill="none" stroke="#9be1ff" stroke-width="3" stroke-linecap="round" opacity="0.9"/>
</svg>
