<?xml version="1.0" encoding="UTF-8"?>
<svg xmlns="http://www.w3.org/2000/svg" viewBox="0 0 1920 1080">
  <defs>
    <linearGradient id="hyrule" x1="0" y1="0" x2="0" y2="1">
      <stop offset="0%" stop-color="#2d5016"/>
      <stop offset="40%" stop-color="#3d6b1f"/>
      <stop offset="100%" stop-color="#1a3310"/>
    </linearGradient>
    <linearGradient id="sky" x1="0" y1="0" x2="0" y2="1">
      <stop offset="0%" stop-color="#87ceeb"/>
      <stop offset="55%" stop-color="#4a7c59"/>
      <stop offset="100%" stop-color="#2d5016"/>
    </linearGradient>
    <radialGradient id="goldglow" cx="50%" cy="0%" r="80%">
      <stop offset="0%" stop-color="#ffd700" stop-opacity="0.35"/>
      <stop offset="100%" stop-color="#000" stop-opacity="0"/>
    </radialGradient>
  </defs>
  <rect width="1920" height="1080" fill="url(#sky)"/>
  <rect y="380" width="1920" height="700" fill="url(#hyrule)"/>
  <rect width="1920" height="1080" fill="url(#goldglow)"/>
  <!-- Triforce hint -->
  <g transform="translate(1680 100) scale(0.85)" opacity="0.25" fill="#ffd700" stroke="#b8860b" stroke-width="4">
    <path d="M0 -60 L52 30 L-52 30 Z"/>
    <path d="M0 -20 L34 46 L-34 46 Z" opacity="0.7"/>
  </g>
  <!-- WoW-ish banner trim -->
  <path d="M0 400 Q480 360 960 400 T1920 400 V420 Q1440 460 960 420 T0 420 Z" fill="#1a3d5c" opacity="0.4"/>
  <!-- Rolling "open world" hills -->
  <path d="M0 720 Q320 640 640 700 T1280 680 T1920 720 V1080 H0 Z" fill="#254418" opacity="0.85"/>
  <path d="M0 820 Q400 760 800 800 T1920 780 V1080 H0 Z" fill="#1e3612" opacity="0.9"/>
  <!-- Skylanders chunky crystal spires -->
  <g opacity="0.35">
    <polygon points="200,1080 260,620 320,1080" fill="#6b5b95"/>
    <polygon points="240,1080 290,680 340,1080" fill="#9b7bc9"/>
    <polygon points="1520,1080 1580,640 1640,1080" fill="#c94c4c"/>
    <polygon points="1560,1080 1610,720 1660,1080" fill="#ff7b7b"/>
  </g>
  <text x="24" y="42" fill="#fff8dc" font-family="Georgia, serif" font-size="15" opacity="0.95">Hero Realm · 2003</text>
  <text x="24" y="64" fill="#ffd700" font-family="Georgia, serif" font-size="11" opacity="0.75">QUEST LOG · LEGEND TIER</text>
</svg>
