<?xml version="1.0" encoding="UTF-8"?>
<svg xmlns="http://www.w3.org/2000/svg" viewBox="0 0 128 128">
  <title>Sound Architect</title>
  <ellipse cx="64" cy="118" rx="36" ry="7" fill="#4a6fa5" opacity="0.25"/>
  <rect x="40" y="56" width="48" height="52" rx="8" fill="#1a2744" stroke="#7bffce" stroke-width="3"/>
  <rect x="48" y="64" width="32" height="28" rx="4" fill="#0d1220" stroke="#6b9fff" stroke-width="2"/>
  <!-- Speaker cones -->
  <circle cx="64" cy="78" r="14" fill="#2a3d5c" stroke="#7bffce" stroke-width="2"/>
  <circle cx="64" cy="78" r="7" fill="#1a2744"/>
  <circle cx="64" cy="78" r="3" fill="#5ce1e6"/>
  <!-- Head / visor -->
  <rect x="44" y="28" width="40" height="22" rx="6" fill="#2a3d5c" stroke="#6b9fff" stroke-width="2"/>
  <rect x="48" y="34" width="32" height="10" rx="2" fill="#5ce1e6" opacity="0.85"/>
  <!-- EQ bars crown -->
  <rect x="34" y="18" width="6" height="16" rx="1" fill="#ff7b9b"/><rect x="44" y="12" width="6" height="22" rx="1" fill="#7bffce"/>
  <rect x="54" y="16" width="6" height="18" rx="1" fill="#ffd77b"/><rect x="64" y="10" width="6" height="24" rx="1" fill="#6b9fff"/>
  <rect x="74" y="16" width="6" height="18" rx="1" fill="#ff7b9b"/><rect x="84" y="20" width="6" height="14" rx="1" fill="#7bffce"/>
  <path d="M20 70 Q10 50 20 40" fill="none" stroke="#7bffce" stroke-width="2" opacity="0.6"/>
  <path d="M108 70 Q118 50 108 40" fill="none" stroke="#7bffce" stroke-width="2" opacity="0.6"/>
</svg>
